<svg width="935" height="500" viewBox="0 0 935 500" fill="none" xmlns="http://www.w3.org/2000/svg">
<g filter="url(#filter0_d_334_202)">
<path d="M529.16 233.145C519.59 257.949 506.309 281.973 489.316 305.215L485.215 310.781L487.559 313.125L511.289 333.34C517.344 338.809 528.574 349.062 544.98 364.102C568.809 386.367 584.727 397.5 592.734 397.5C599.57 397.5 610.898 388.906 626.719 371.719L633.75 377.871C628.867 383.73 619.102 394.277 604.453 409.512C597.227 417.129 588.438 426.699 578.086 438.223L573.691 443.203L567.832 437.344C534.043 403.359 499.766 370.938 465 340.078L460.02 335.977C426.816 367.812 390.195 392.812 350.156 410.977C310.312 429.141 271.934 438.223 235.02 438.223C196.152 438.223 165.098 429.922 141.855 413.32C118.809 396.719 107.285 374.453 107.285 346.523C107.285 302.578 130.039 269.277 175.547 246.621C194.297 237.441 214.121 230.996 235.02 227.285C255.918 223.379 287.656 220.449 330.234 218.496C345.664 217.715 355.82 213.027 360.703 204.434C314.219 204.434 280.723 199.941 260.215 190.957C239.707 181.777 229.453 167.031 229.453 146.719C229.453 119.375 247.129 94.5703 282.48 72.3047C320.371 48.4766 360.02 36.5625 401.426 36.5625C409.434 36.5625 418.32 37.1484 428.086 38.3203C417.93 60.7813 408.359 86.6602 399.375 115.957L390.293 113.027C394.004 101.699 395.859 92.5195 395.859 85.4883C395.859 77.4805 393.613 71.9141 389.121 68.7891C384.629 65.6641 376.816 64.1016 365.684 64.1016C332.871 64.1016 306.699 70.0586 287.168 81.9727C267.832 93.6914 258.164 109.512 258.164 129.434C258.164 160.293 278.965 180.508 320.566 190.078C346.738 195.938 407.09 198.867 501.621 198.867C567.441 198.867 610.02 193.301 629.355 182.168C651.035 169.863 661.875 151.504 661.875 127.09C661.875 122.598 660.703 116.934 658.359 110.098C671.25 114.395 677.695 122.695 677.695 135C677.695 144.961 669.492 158.73 653.086 176.309C636.68 193.691 619.492 207.07 601.523 216.445C580.039 227.578 555.918 233.145 529.16 233.145ZM499.863 233.145L485.215 232.852L414.902 231.094L334.336 229.336C269.297 229.336 222.422 236.27 193.711 250.137C158.359 267.129 140.684 292.715 140.684 326.895C140.684 353.262 152.012 374.355 174.668 390.176C197.52 405.996 227.891 413.906 265.781 413.906C300.742 413.906 334.141 406.387 365.977 391.348C397.812 376.309 425.449 354.922 448.887 327.188C430.137 308.828 408.555 293.496 384.141 281.191C359.727 268.887 338.828 262.734 321.445 262.734C301.523 262.734 285.605 268.984 273.691 281.484C261.973 293.984 256.113 310.781 256.113 331.875C256.113 337.148 256.797 344.375 258.164 353.555C246.25 346.523 240.293 336.27 240.293 322.793C240.293 303.652 252.012 284.902 275.449 266.543C298.887 248.184 322.812 239.004 347.227 239.004C378.281 239.004 417.246 257.266 464.121 293.789L469.98 298.477C482.09 281.875 492.051 260.098 499.863 233.145Z" fill="#E6E9F2"/>
<path d="M529.16 233.145V232.145H528.474L528.227 232.785L529.16 233.145ZM489.316 305.215L490.121 305.808L490.124 305.805L489.316 305.215ZM485.215 310.781L484.41 310.188L483.9 310.88L484.508 311.488L485.215 310.781ZM487.559 313.125L486.852 313.832L486.88 313.86L486.91 313.886L487.559 313.125ZM511.289 333.34L511.959 332.598L511.949 332.588L511.938 332.579L511.289 333.34ZM544.98 364.102L545.663 363.371L545.656 363.364L544.98 364.102ZM626.719 371.719L627.377 370.966L626.643 370.324L625.983 371.042L626.719 371.719ZM633.75 377.871L634.518 378.511L635.143 377.761L634.409 377.119L633.75 377.871ZM604.453 409.512L603.732 408.819L603.728 408.823L604.453 409.512ZM578.086 438.223L577.342 437.554L577.336 437.561L578.086 438.223ZM573.691 443.203L572.984 443.91L573.737 444.663L574.441 443.865L573.691 443.203ZM567.832 437.344L567.123 438.049L567.125 438.051L567.832 437.344ZM465 340.078L465.664 339.33L465.65 339.318L465.636 339.306L465 340.078ZM460.02 335.977L460.655 335.205L459.969 334.64L459.327 335.255L460.02 335.977ZM350.156 410.977L349.743 410.066L349.741 410.067L350.156 410.977ZM141.855 413.32L141.271 414.132L141.274 414.134L141.855 413.32ZM175.547 246.621L175.107 245.723L175.101 245.726L175.547 246.621ZM235.02 227.285L235.194 228.27L235.203 228.268L235.02 227.285ZM330.234 218.496L330.28 219.495L330.285 219.495L330.234 218.496ZM360.703 204.434L361.573 204.928L362.421 203.434H360.703V204.434ZM260.215 190.957L259.806 191.87L259.814 191.873L260.215 190.957ZM282.48 72.3047L281.948 71.4582L281.948 71.4585L282.48 72.3047ZM428.086 38.3203L428.997 38.7323L429.559 37.4899L428.205 37.3274L428.086 38.3203ZM399.375 115.957L399.068 116.909L400.034 117.22L400.331 116.25L399.375 115.957ZM390.293 113.027L389.343 112.716L389.03 113.671L389.986 113.979L390.293 113.027ZM287.168 81.9727L287.686 82.8279L287.689 82.8264L287.168 81.9727ZM320.566 190.078L320.342 191.053L320.348 191.054L320.566 190.078ZM629.355 182.168L628.862 181.298L628.857 181.301L629.355 182.168ZM658.359 110.098L658.676 109.149L656.758 108.51L657.413 110.422L658.359 110.098ZM653.086 176.309L653.813 176.995L653.817 176.991L653.086 176.309ZM601.523 216.445L601.984 217.333L601.986 217.332L601.523 216.445ZM499.863 233.145L500.824 233.423L501.187 232.171L499.883 232.145L499.863 233.145ZM485.215 232.852L485.19 233.851L485.195 233.851L485.215 232.852ZM414.902 231.094L414.927 230.094L414.924 230.094L414.902 231.094ZM334.336 229.336L334.358 228.336L334.347 228.336H334.336V229.336ZM193.711 250.137L194.144 251.038L194.146 251.037L193.711 250.137ZM174.668 390.176L174.095 390.996L174.099 390.998L174.668 390.176ZM448.887 327.188L449.651 327.833L450.25 327.123L449.586 326.473L448.887 327.188ZM273.691 281.484L272.968 280.794L272.962 280.8L273.691 281.484ZM258.164 353.555L257.656 354.416L259.462 355.482L259.153 353.407L258.164 353.555ZM464.121 293.789L464.746 293.008L464.736 293L464.121 293.789ZM469.98 298.477L469.356 299.257L470.172 299.911L470.788 299.066L469.98 298.477ZM528.227 232.785C518.691 257.501 505.454 281.448 488.509 304.625L490.124 305.805C507.163 282.498 520.489 258.398 530.093 233.505L528.227 232.785ZM488.511 304.622L484.41 310.188L486.02 311.374L490.121 305.808L488.511 304.622ZM484.508 311.488L486.852 313.832L488.266 312.418L485.922 310.074L484.508 311.488ZM486.91 313.886L510.641 334.101L511.938 332.579L488.207 312.364L486.91 313.886ZM510.619 334.082C516.67 339.548 527.898 349.799 544.305 364.839L545.656 363.364C529.25 348.326 518.017 338.069 511.959 332.598L510.619 334.082ZM544.298 364.832C556.226 375.979 566.202 384.364 574.217 389.97C578.224 392.772 581.762 394.895 584.823 396.319C587.871 397.737 590.522 398.5 592.734 398.5V396.5C590.943 396.5 588.601 395.871 585.667 394.506C582.748 393.147 579.315 391.095 575.363 388.331C567.46 382.803 557.563 374.49 545.663 363.371L544.298 364.832ZM592.734 398.5C596.507 398.5 601.278 396.163 606.962 391.851C612.693 387.503 619.526 381.009 627.455 372.396L625.983 371.042C618.091 379.616 611.35 386.012 605.753 390.258C600.109 394.54 595.798 396.5 592.734 396.5V398.5ZM626.06 372.471L633.091 378.624L634.409 377.119L627.377 370.966L626.06 372.471ZM632.982 377.231C628.125 383.059 618.383 393.581 603.732 408.819L605.174 410.205C619.82 394.973 629.609 384.402 634.518 378.511L632.982 377.231ZM603.728 408.823C596.493 416.45 587.697 426.027 577.342 437.554L578.83 438.891C589.178 427.371 597.96 417.808 605.179 410.2L603.728 408.823ZM577.336 437.561L572.942 442.542L574.441 443.865L578.836 438.884L577.336 437.561ZM574.398 442.496L568.539 436.637L567.125 438.051L572.984 443.91L574.398 442.496ZM568.541 436.639C534.738 402.64 500.445 370.204 465.664 339.33L464.336 340.826C499.086 371.671 533.348 404.079 567.123 438.049L568.541 436.639ZM465.636 339.306L460.655 335.205L459.384 336.749L464.364 340.85L465.636 339.306ZM459.327 335.255C426.202 367.016 389.674 391.951 349.743 410.066L350.569 411.887C390.716 393.674 427.431 368.609 460.712 336.698L459.327 335.255ZM349.741 410.067C310.004 428.182 271.766 437.223 235.02 437.223V439.223C272.101 439.223 310.621 430.099 350.571 411.886L349.741 410.067ZM235.02 437.223C196.287 437.223 165.458 428.95 142.437 412.507L141.274 414.134C164.737 430.894 196.018 439.223 235.02 439.223V437.223ZM142.44 412.509C119.649 396.091 108.285 374.125 108.285 346.523H106.285C106.285 374.781 117.968 397.346 141.271 414.132L142.44 412.509ZM108.285 346.523C108.285 324.733 113.923 305.622 125.176 289.153C136.435 272.676 153.352 258.788 175.993 247.516L175.101 245.726C152.234 257.111 135.02 271.201 123.525 288.025C112.024 304.856 106.285 324.368 106.285 346.523H108.285ZM175.987 247.519C194.651 238.381 214.386 231.965 235.194 228.27L234.845 226.301C213.856 230.028 193.942 236.502 175.107 245.723L175.987 247.519ZM235.203 228.268C256.031 224.375 287.712 221.448 330.28 219.495L330.189 217.497C287.6 219.451 255.805 222.383 234.836 226.302L235.203 228.268ZM330.285 219.495C345.854 218.706 356.441 213.959 361.573 204.928L359.834 203.94C355.2 212.095 345.474 216.723 330.184 217.497L330.285 219.495ZM360.703 203.434C314.24 203.434 280.922 198.937 260.616 190.041L259.814 191.873C280.523 200.946 314.198 205.434 360.703 205.434V203.434ZM260.623 190.044C250.494 185.51 242.965 179.632 237.965 172.442C232.969 165.258 230.453 156.699 230.453 146.719H228.453C228.453 157.051 231.064 166.022 236.323 173.584C241.576 181.139 249.428 187.224 259.806 191.87L260.623 190.044ZM230.453 146.719C230.453 119.875 247.79 95.336 283.013 73.1508L281.948 71.4585C246.468 93.8046 228.453 118.875 228.453 146.719H230.453ZM283.013 73.1512C320.757 49.4149 360.223 37.5625 401.426 37.5625V35.5625C359.816 35.5625 319.985 47.5382 281.948 71.4582L283.013 73.1512ZM401.426 37.5625C409.386 37.5625 418.232 38.145 427.967 39.3132L428.205 37.3274C418.408 36.1518 409.481 35.5625 401.426 35.5625V37.5625ZM427.175 37.9083C416.997 60.4158 407.413 86.3357 398.419 115.664L400.331 116.25C409.306 86.9846 418.862 61.1467 428.997 38.7323L427.175 37.9083ZM399.682 115.005L390.6 112.076L389.986 113.979L399.068 116.909L399.682 115.005ZM391.243 113.339C394.968 101.97 396.859 92.6737 396.859 85.4883H394.859C394.859 92.3654 393.04 101.429 389.343 112.716L391.243 113.339ZM396.859 85.4883C396.859 77.3141 394.563 71.3562 389.692 67.9682L388.55 69.61C392.664 72.4719 394.859 77.6469 394.859 85.4883H396.859ZM389.692 67.9682C384.931 64.6562 376.847 63.1016 365.684 63.1016V65.1016C376.786 65.1016 384.327 66.672 388.55 69.61L389.692 67.9682ZM365.684 63.1016C332.763 63.1016 306.389 69.0763 286.647 81.1189L287.689 82.8264C307.009 71.0409 332.979 65.1016 365.684 65.1016V63.1016ZM286.65 81.1175C267.063 92.9883 257.164 109.109 257.164 129.434H259.164C259.164 109.914 268.601 94.3945 287.686 82.8279L286.65 81.1175ZM257.164 129.434C257.164 145.114 262.46 158.148 273.068 168.456C283.647 178.738 299.442 186.245 320.342 191.053L320.791 189.104C300.089 184.341 284.683 176.956 274.462 167.022C264.268 157.116 259.164 144.612 259.164 129.434H257.164ZM320.348 191.054C346.65 196.942 407.122 199.867 501.621 199.867V197.867C407.058 197.867 346.827 194.933 320.785 189.102L320.348 191.054ZM501.621 199.867C534.554 199.867 561.701 198.475 583.05 195.684C604.371 192.897 620.011 188.702 629.854 183.035L628.857 181.301C619.364 186.766 604.047 190.922 582.79 193.701C561.56 196.476 534.508 197.867 501.621 197.867V199.867ZM629.849 183.038C651.834 170.56 662.875 151.873 662.875 127.09H660.875C660.875 151.135 650.237 169.167 628.862 181.298L629.849 183.038ZM662.875 127.09C662.875 122.441 661.666 116.658 659.305 109.773L657.413 110.422C659.74 117.209 660.875 122.754 660.875 127.09H662.875ZM658.043 111.046C664.355 113.15 669.001 116.205 672.071 120.159C675.136 124.105 676.695 129.03 676.695 135H678.695C678.695 128.665 677.032 123.287 673.651 118.933C670.276 114.586 665.254 111.342 658.676 109.149L658.043 111.046ZM676.695 135C676.695 139.722 674.744 145.471 670.684 152.286C666.632 159.087 660.531 166.866 652.355 175.626L653.817 176.991C662.047 168.173 668.251 160.278 672.402 153.31C676.545 146.355 678.695 140.239 678.695 135H676.695ZM652.359 175.622C636.016 192.938 618.915 206.244 601.061 215.559L601.986 217.332C620.069 207.897 637.344 194.445 653.813 176.995L652.359 175.622ZM601.063 215.557C579.736 226.609 555.775 232.145 529.16 232.145V234.145C556.061 234.145 580.342 228.547 601.984 217.333L601.063 215.557ZM499.883 232.145L485.235 231.852L485.195 233.851L499.843 234.144L499.883 232.145ZM485.24 231.852L414.927 230.094L414.877 232.093L485.19 233.851L485.24 231.852ZM414.924 230.094L334.358 228.336L334.314 230.336L414.881 232.094L414.924 230.094ZM334.336 228.336C269.271 228.336 222.202 235.265 193.276 249.236L194.146 251.037C222.641 237.274 269.323 230.336 334.336 230.336V228.336ZM193.278 249.235C175.486 257.787 162.077 268.533 153.118 281.502C144.153 294.478 139.684 309.623 139.684 326.895H141.684C141.684 309.987 146.052 295.248 154.763 282.639C163.48 270.021 176.585 259.478 194.144 251.038L193.278 249.235ZM139.684 326.895C139.684 353.607 151.187 374.999 174.095 390.996L175.24 389.356C152.837 373.712 141.684 352.917 141.684 326.895H139.684ZM174.099 390.998C197.168 406.969 227.759 414.906 265.781 414.906V412.906C228.022 412.906 197.871 405.023 175.237 389.354L174.099 390.998ZM265.781 414.906C300.891 414.906 334.435 407.354 366.404 392.252L365.549 390.443C333.846 405.42 300.593 412.906 265.781 412.906V414.906ZM366.404 392.252C398.373 377.15 426.124 355.673 449.651 327.833L448.123 326.542C424.775 354.171 397.252 375.467 365.549 390.443L366.404 392.252ZM449.586 326.473C430.76 308.039 409.093 292.647 384.591 280.298L383.691 282.084C408.017 294.345 429.514 309.618 448.187 327.902L449.586 326.473ZM384.591 280.298C360.109 267.96 339.049 261.734 321.445 261.734V263.734C338.607 263.734 359.344 269.814 383.691 282.084L384.591 280.298ZM321.445 261.734C301.296 261.734 285.1 268.065 272.968 280.794L274.415 282.174C286.111 269.903 301.751 263.734 321.445 263.734V261.734ZM272.962 280.8C261.031 293.526 255.113 310.589 255.113 331.875H257.113C257.113 310.974 262.914 294.442 274.421 282.168L272.962 280.8ZM255.113 331.875C255.113 337.221 255.805 344.504 257.175 353.702L259.153 353.407C257.789 344.246 257.113 337.076 257.113 331.875H255.113ZM258.672 352.693C247.053 345.836 241.293 335.904 241.293 322.793H239.293C239.293 336.635 245.447 347.211 257.656 354.416L258.672 352.693ZM241.293 322.793C241.293 304.099 252.734 285.607 276.066 267.33L274.833 265.756C251.289 284.198 239.293 303.206 239.293 322.793H241.293ZM276.066 267.33C299.367 249.078 323.082 240.004 347.227 240.004V238.004C322.543 238.004 298.406 247.29 274.833 265.756L276.066 267.33ZM347.227 240.004C377.931 240.004 416.669 258.084 463.506 294.578L464.736 293C417.823 256.447 378.631 238.004 347.227 238.004V240.004ZM463.496 294.57L469.356 299.257L470.605 297.696L464.746 293.008L463.496 294.57ZM470.788 299.066C482.986 282.343 492.99 260.45 500.824 233.423L498.903 232.866C491.112 259.746 481.193 281.407 469.173 297.887L470.788 299.066Z" fill="#0F1015"/>
</g>
<g filter="url(#filter1_d_334_202)">
<path d="M302.1 342H315.8V309.5L338.7 342H355.2L327.4 304.4L355.2 268.1H338.7L315.8 300V268.1H302.1V342ZM384.043 285.3C367.443 285.3 354.343 298.2 354.343 314.4C354.343 330.3 367.543 343.3 383.843 343.3C400.043 343.3 413.243 330.3 413.243 314.4C413.243 298.4 400.143 285.3 384.043 285.3ZM383.543 297.5C392.643 297.5 399.843 304.9 399.843 314.4C399.843 323.6 392.643 331.1 383.743 331.1C374.943 331.1 367.743 323.6 367.743 314.3C367.743 305.1 374.943 297.5 383.543 297.5ZM472.396 342V286.6H459.096V308H434.696V286.6H421.396V342H434.696V320.1H459.096V342H472.396ZM522.713 323.8C519.413 328.9 515.613 331.1 510.113 331.1C500.913 331.1 494.013 323.9 494.013 314.2C494.013 304.4 500.513 297.5 509.813 297.5C515.813 297.5 520.013 299.9 522.713 305.1H537.713C535.813 299.7 534.113 296.9 530.612 293.5C525.213 288.2 517.713 285.3 509.813 285.3C493.413 285.3 480.613 298 480.613 314.3C480.613 330.4 493.813 343.3 510.213 343.3C523.213 343.3 533.113 336.2 537.713 323.8H522.713ZM548.852 360.5H563.152L595.152 286.6H579.852L566.452 322.5L554.152 286.6H538.952L559.252 336.8L548.852 360.5ZM645.162 342L622.062 286.6H611.662L588.562 342H602.762L616.862 305.2L630.962 342H645.162ZM664.188 317.7H674.388C678.388 317.7 681.088 320.3 681.088 323.8C681.088 327.3 678.388 329.9 674.388 329.9H664.188V317.7ZM675.288 305.6H664.188V286.6H650.888V342H675.288C686.788 342 694.488 333.6 694.488 323.8C694.488 314 686.788 305.6 675.288 305.6ZM733.459 298.7V286.6H694.359V298.7H707.259V342H720.559V298.7H733.459ZM795.363 286.6H783.163V294C778.563 287.9 773.063 285.3 765.063 285.3C748.663 285.3 736.863 297.6 736.863 314.5C736.863 331.2 748.563 343.3 764.763 343.3C772.563 343.3 777.863 340.9 783.163 334.8V342H795.363V286.6ZM766.263 297.5C775.963 297.5 782.763 304.5 782.763 314.5C782.763 324.4 776.263 331.1 766.663 331.1C756.963 331.1 750.263 324.5 750.263 314.8C750.263 304.8 756.963 297.5 766.263 297.5ZM857.162 342V286.6H843.862V308H819.462V286.6H806.162V342H819.462V320.1H843.862V342H857.162ZM903.478 298.7V286.6H864.378V298.7H877.278V342H890.578V298.7H903.478Z" fill="#0F1015"/>
</g>
<g filter="url(#filter2_d_334_202)">
<path d="M20.8 143.9H25.2C29.6 143.9 33 144.3 35.5 145C39.8 146.1 42.5 149.5 42.5 153.7C42.5 158.4 39.8 162 35.4 163.1C33 163.6 30.7 163.9 25.8 163.9H20.8V143.9ZM20.8 116.2H51.6V103.1H7.1L7.1 177H25.6C36.3 177 41.8 176.1 46.4 173.2C52.7 169.3 56.3 162.4 56.3 154C56.3 145.2 52.2 137.4 45.4 133.8C41.1 131.5 36.1 130.8 25.4 130.8H20.8V116.2ZM67.3289 195.5H81.6289L113.629 121.6H98.3289L84.9289 157.5L72.6289 121.6H57.4289L77.7289 171.8L67.3289 195.5ZM114.265 177H130.265L141.865 158L153.465 177H169.465L149.765 148.4L166.665 121.6H151.665L141.865 138.3L131.865 121.6H116.865L133.865 148.4L114.265 177ZM206.527 121.6H175.127V177H188.427V133.7H206.527V121.6ZM268.82 121.6H256.62V129C252.02 122.9 246.52 120.3 238.52 120.3C222.12 120.3 210.32 132.6 210.32 149.5C210.32 166.2 222.02 178.3 238.22 178.3C246.02 178.3 251.32 175.9 256.62 169.8V177H268.82V121.6ZM239.72 132.5C249.42 132.5 256.22 139.5 256.22 149.5C256.22 159.4 249.72 166.1 240.12 166.1C230.42 166.1 223.72 159.5 223.72 149.8C223.72 139.8 230.42 132.5 239.72 132.5ZM331.119 177L308.019 121.6H297.619L274.519 177H288.719L302.819 140.2L316.919 177H331.119ZM368.244 133.7V121.6H329.144V133.7H342.044V177H355.344V133.7H368.244ZM428.948 155.2C429.348 153.3 429.448 152.1 429.448 150.1C429.448 132.9 417.348 120.3 400.848 120.3C384.548 120.3 371.648 133.2 371.648 149.5C371.648 165.7 384.748 178.3 401.648 178.3C410.748 178.3 417.848 175.1 423.648 168.3C425.748 165.7 427.148 163.4 428.048 160.6H413.548C410.148 164.6 406.848 166.1 401.348 166.1C393.448 166.1 387.648 161.9 386.048 155.2H428.948ZM385.648 143.5C387.748 136.3 393.148 132.5 401.048 132.5C409.248 132.5 414.648 136.4 416.348 143.5H385.648ZM437.627 195.5H450.927V171.8C456.027 176.3 461.127 178.3 467.927 178.3C483.927 178.3 495.627 165.9 495.627 149.1C495.627 132.4 484.027 120.3 468.027 120.3C460.527 120.3 454.127 123 449.827 128.1V121.6H437.627V195.5ZM466.027 132.5C475.427 132.5 482.227 139.7 482.227 149.4C482.227 158.8 475.327 166.1 466.427 166.1C457.227 166.1 450.127 158.9 450.127 149.5C450.127 139.8 457.027 132.5 466.027 132.5Z" fill="#0F1015"/>
</g>
<defs>
<filter id="filter0_d_334_202" x="107.285" y="36.5625" width="601.41" height="432.641" filterUnits="userSpaceOnUse" color-interpolation-filters="sRGB">
<feFlood flood-opacity="0" result="BackgroundImageFix"/>
<feColorMatrix in="SourceAlpha" type="matrix" values="0 0 0 0 0 0 0 0 0 0 0 0 0 0 0 0 0 0 127 0" result="hardAlpha"/>
<feOffset dx="23" dy="18"/>
<feGaussianBlur stdDeviation="4"/>
<feComposite in2="hardAlpha" operator="out"/>
<feColorMatrix type="matrix" values="0 0 0 0 0 0 0 0 0 0 0 0 0 0 0 0 0 0 0.25 0"/>
<feBlend mode="normal" in2="BackgroundImageFix" result="effect1_dropShadow_334_202"/>
<feBlend mode="normal" in="SourceGraphic" in2="effect1_dropShadow_334_202" result="shape"/>
</filter>
<filter id="filter1_d_334_202" x="302.1" y="268.1" width="632.378" height="118.4" filterUnits="userSpaceOnUse" color-interpolation-filters="sRGB">
<feFlood flood-opacity="0" result="BackgroundImageFix"/>
<feColorMatrix in="SourceAlpha" type="matrix" values="0 0 0 0 0 0 0 0 0 0 0 0 0 0 0 0 0 0 127 0" result="hardAlpha"/>
<feOffset dx="23" dy="18"/>
<feGaussianBlur stdDeviation="4"/>
<feComposite in2="hardAlpha" operator="out"/>
<feColorMatrix type="matrix" values="0 0 0 0 0 0 0 0 0 0 0 0 0 0 0 0 0 0 0.25 0"/>
<feBlend mode="normal" in2="BackgroundImageFix" result="effect1_dropShadow_334_202"/>
<feBlend mode="normal" in="SourceGraphic" in2="effect1_dropShadow_334_202" result="shape"/>
</filter>
<filter id="filter2_d_334_202" x="7.09998" y="103.1" width="519.527" height="118.4" filterUnits="userSpaceOnUse" color-interpolation-filters="sRGB">
<feFlood flood-opacity="0" result="BackgroundImageFix"/>
<feColorMatrix in="SourceAlpha" type="matrix" values="0 0 0 0 0 0 0 0 0 0 0 0 0 0 0 0 0 0 127 0" result="hardAlpha"/>
<feOffset dx="23" dy="18"/>
<feGaussianBlur stdDeviation="4"/>
<feComposite in2="hardAlpha" operator="out"/>
<feColorMatrix type="matrix" values="0 0 0 0 0 0 0 0 0 0 0 0 0 0 0 0 0 0 0.25 0"/>
<feBlend mode="normal" in2="BackgroundImageFix" result="effect1_dropShadow_334_202"/>
<feBlend mode="normal" in="SourceGraphic" in2="effect1_dropShadow_334_202" result="shape"/>
</filter>
</defs>
</svg>
